PathFileType	4	(X/Y/Z)	/Users/itak/Documents/Research/Walk-IL/dataset/trc/00460_00167.trc
DataRate	CameraRate	NumFrames	NumMarkers	Units	OrigDataRate	OrigDataStartFrame	OrigNumFrames
100.000000	100.000000	4	53	mm	100.000000	341	683
Frame#	Time	RPSI			LPSI			L3			STRN			T10			C7			CLAV			RBAK			LBAK			LSHO			LUPA			LAEL			LAOL			LWTS			LWPS			LFRA			LIFD			LHPS			LHTS			RSHO			RUPA			RAEL			RAOL			RWTS			RWPS			RFRA			RIFD			RHTS			RHPS			RBHD			LFHD			RFHD			LBHD			LHIP			RHIP			RASI			LASI			LKNE			LTHI			LANK			LTIP			LTOE			LMT1			LMT5			LHEE			RKNE			RTHI			RANK			RTIP			RTOE			RMT1			RMT5			RHEE			
		X1	Y1	Z1	X2	Y2	Z2	X3	Y3	Z3	X4	Y4	Z4	X5	Y5	Z5	X6	Y6	Z6	X7	Y7	Z7	X8	Y8	Z8	X9	Y9	Z9	X10	Y10	Z10	X11	Y11	Z11	X12	Y12	Z12	X13	Y13	Z13	X14	Y14	Z14	X15	Y15	Z15	X16	Y16	Z16	X17	Y17	Z17	X18	Y18	Z18	X19	Y19	Z19	X20	Y20	Z20	X21	Y21	Z21	X22	Y22	Z22	X23	Y23	Z23	X24	Y24	Z24	X25	Y25	Z25	X26	Y26	Z26	X27	Y27	Z27	X28	Y28	Z28	X29	Y29	Z29	X30	Y30	Z30	X31	Y31	Z31	X32	Y32	Z32	X33	Y33	Z33	X34	Y34	Z34	X35	Y35	Z35	X36	Y36	Z36	X37	Y37	Z37	X38	Y38	Z38	X39	Y39	Z39	X40	Y40	Z40	X41	Y41	Z41	X42	Y42	Z42	X43	Y43	Z43	X44	Y44	Z44	X45	Y45	Z45	X46	Y46	Z46	X47	Y47	Z47	X48	Y48	Z48	X49	Y49	Z49	X50	Y50	Z50	X51	Y51	Z51	X52	Y52	Z52	X53	Y53	Z53	

342	3.41	-88.51224517822266	950.1618041992188	-776.3477783203125	24.91717529296875	953.974609375	-861.229248046875	-20.7169361114502	1054.815673828125	-800.6898193359375	151.2757568359375	1237.411987304688	-571.5892333984375	-13.74269771575928	1178.215454101562	-813.8798828125	24.66483306884766	1441.775024414062	-739.3367309570312	134.9325256347656	1352.684326171875	-595.7254028320312	-90.49533081054688	1326.3837890625	-748.4161987304688	92.27813720703125	1396.940551757812	-822.4033813476562	212.6925659179688	1420.424072265625	-776.8943481445312	303.5476989746094	1318.593994140625	-841.8872680664062	393.4837036132812	1126.2998046875	-861.7011108398438	301.40625	1088.182861328125	-889.592529296875	469.5310668945312	926.6138916015625	-806.4359130859375	476.8477172851562	926.9212036132812	-880.4241333007812	436.2807006835938	1047.208740234375	-863.767578125	526.1795043945312	769.48291015625	-844.546142578125	506.5212097167969	855.4505004882812	-891.8085327148438	516.1367797851562	850.1071166992188	-820.5415649414062	-76.16736602783203	1412.260009765625	-599.2413330078125	-153.4443206787109	1354.440063476562	-582.6942138671875	-221.5678100585938	1071.473388671875	-579.0242309570312	-209.7061309814453	1060.012329101562	-644.5731811523438	-146.9369812011719	855.7362060546875	-531.146728515625	-229.2379150390625	849.2850952148438	-561.2986450195312	-232.0307006835938	1012.91357421875	-576.011962890625	-162.9817352294922	700.2752075195312	-541.6939697265625	-156.2819976806641	756.8187255859375	-522.537841796875	-224.1087799072266	761.15576171875	-557.3082885742188	-12.8701639175415	1620.978271484375	-608.3539428710938	184.5192413330078	1646.333129882812	-553.26123046875	67.93809509277344	1627.973510742188	-497.0989074707031	136.8754425048828	1651.8466796875	-698.4862670898438	193.1949157714844	851.2177734375	-831.1541137695312	-122.1466674804688	857.9111938476562	-584.875244140625	-8.637435913085938	903.4631958007812	-555.3414306640625	199.2608032226562	885.7241821289062	-703.6520385742188	159.9521789550781	436.7774658203125	-841.1806640625	197.7033081054688	587.7840576171875	-821.8507080078125	57.17610168457031	42.0428581237793	-950.3524169921875	146.8542633056641	290.0008239746094	-880.5015869140625	203.6599731445312	40.7568359375	-753.8699951171875	125.6821899414062	47.26064300537109	-776.00048828125	191.4429168701172	40.12714767456055	-873.401123046875	-17.89808464050293	45.5288200378418	-921.5393676757812	-9.188617706298828	482.9285583496094	-488.7355041503906	-83.89520263671875	736.07470703125	-519.1702270507812	44.56676483154297	49.57669448852539	-493.3956298828125	4.346879005432129	339.6802062988281	-470.0923156738281	155.4885406494141	90.14283752441406	-310.9352111816406	169.6883087158203	83.05966186523438	-381.8844299316406	66.13838195800781	69.89544677734375	-365.7665100097656	68.78187561035156	43.31839370727539	-570.0505981445312	
343	3.42	-83.65095520019531	949.2493896484375	-773.8226928710938	30.69380187988281	953.38134765625	-857.30517578125	-15.91753673553467	1053.657592773438	-797.1818237304688	153.6903533935547	1236.213256835938	-566.3070068359375	-8.955314636230469	1177.119750976562	-810.2295532226562	28.46854400634766	1440.575073242188	-735.087158203125	137.4673004150391	1351.464599609375	-590.5189208984375	-86.50905609130859	1325.190551757812	-745.380615234375	97.03504943847656	1395.910766601562	-817.5696411132812	216.8551177978516	1419.443359375	-770.9454345703125	308.524169921875	1317.873291015625	-835.192138671875	399.6131286621094	1125.940551757812	-853.8455810546875	308.0109558105469	1086.93115234375	-881.9336547851562	476.679443359375	927.6908569335938	-795.4869384765625	484.5175170898438	926.840087890625	-869.3991088867188	443.0263977050781	1047.125366210938	-854.7301635742188	535.3479614257812	770.660888671875	-830.185791015625	515.0205688476562	855.5313110351562	-879.2427978515625	524.2297973632812	851.64697265625	-807.8805541992188	-73.60821533203125	1410.955444335938	-595.9878540039062	-151.0062713623047	1353.061401367188	-580.18359375	-218.5613250732422	1069.859497070312	-577.7185668945312	-206.1317138671875	1058.57275390625	-643.2064819335938	-143.7846221923828	854.1798095703125	-529.7607421875	-225.8620910644531	847.628173828125	-560.5302124023438	-228.8995208740234	1011.268920898438	-574.9519653320312	-159.318359375	698.6917724609375	-540.9183959960938	-152.8971862792969	755.1984252929688	-521.53857421875	-220.4554290771484	759.4570922851562	-556.8479614257812	-10.47055625915527	1619.547241210938	-604.3486938476562	186.2410736083984	1645.01953125	-547.0671997070312	69.13664245605469	1626.451171875	-492.1849975585938	140.1289978027344	1650.775634765625	-692.7686767578125	198.2663421630859	850.3348999023438	-826.0250854492188	-119.6144027709961	855.9490966796875	-583.5775756835938	-6.444189548492432	901.5558471679688	-551.7817993164062	203.1840667724609	884.45458984375	-698.1838989257812	161.8208923339844	436.2579956054688	-839.0830688476562	200.4843597412109	586.9756469726562	-818.2361450195312	57.26357650756836	42.30510711669922	-950.2573852539062	147.9798736572266	289.7668762207031	-879.3103637695312	203.6262664794922	40.71073532104492	-753.7921142578125	125.7507095336914	47.28298950195312	-775.9815063476562	191.5120544433594	40.09137344360352	-873.3819580078125	-17.78399467468262	45.90842437744141	-921.51611328125	-7.872412204742432	480.2132873535156	-488.6899108886719	-83.35012817382812	733.2211303710938	-518.7171020507812	52.9977912902832	48.48025512695312	-474.9137878417969	7.306425094604492	338.9747314453125	-464.6036376953125	161.1910705566406	96.24318695068359	-292.5427856445312	176.2044219970703	87.50141143798828	-363.1112670898438	72.72379302978516	72.84758758544922	-347.6807861328125	78.37320709228516	40.31829452514648	-551.1865234375	
344	3.43	-78.84574890136719	948.2119750976562	-771.0872802734375	36.38105773925781	952.7191772460938	-853.172119140625	-11.21693897247314	1052.375122070312	-793.4750366210938	156.0151977539062	1234.939453125	-560.9031372070312	-4.332284927368164	1175.911743164062	-806.3753662109375	32.06063461303711	1439.276123046875	-730.649169921875	139.8833923339844	1350.17236328125	-585.1914672851562	-82.69068145751953	1323.863647460938	-742.0761108398438	101.5693588256836	1394.806884765625	-812.5901489257812	220.7788391113281	1418.393188476562	-764.8970336914062	313.2898254394531	1317.102905273438	-828.37255859375	405.4584045410156	1125.458740234375	-845.76318359375	314.3476867675781	1085.650390625	-874.1913452148438	483.2430725097656	928.5839233398438	-784.1886596679688	491.7714538574219	926.6005859375	-857.99951171875	449.4168090820312	1046.897338867188	-845.3968505859375	543.5924072265625	771.5704956054688	-815.416259765625	522.9155883789062	855.372314453125	-866.2573852539062	531.5588989257812	852.9061279296875	-794.8178100585938	-71.13884735107422	1409.536743164062	-592.4758911132812	-148.6591949462891	1351.557983398438	-577.3840942382812	-215.6013488769531	1068.107543945312	-576.0885009765625	-202.6652069091797	1057.007568359375	-641.521728515625	-140.5963897705078	852.4832763671875	-528.13623046875	-222.470458984375	845.8328857421875	-559.459228515625	-225.8231658935547	1009.492431640625	-573.5401000976562	-155.5645599365234	696.982421875	-539.9611206054688	-149.4281005859375	753.4436645507812	-520.3380737304688	-216.7796020507812	757.6119995117188	-556.0927734375	-8.160329818725586	1618.092041015625	-600.1969604492188	187.9020690917969	1643.602294921875	-540.8370971679688	70.31233215332031	1624.87158203125	-487.1717834472656	143.2541351318359	1649.604614257812	-686.9764404296875	203.3239288330078	849.4595947265625	-820.7730102539062	-116.9991912841797	853.7621459960938	-582.1949462890625	-4.212201595306396	899.5239868164062	-548.08154296875	207.1112823486328	883.1422119140625	-692.57958984375	163.7479705810547	435.7877197265625	-836.9306030273438	203.2643127441406	586.1925659179688	-814.5399169921875	57.38806533813477	42.58259582519531	-950.177001953125	149.1710052490234	289.5667419433594	-878.0990600585938	203.5967254638672	40.66955947875977	-753.71630859375	125.8327941894531	47.32680130004883	-775.980224609375	191.6046447753906	40.04811096191406	-873.367431640625	-17.6230525970459	46.32405090332031	-921.5204467773438	-6.307437419891357	477.5681762695312	-488.3126831054688	-82.64571380615234	730.2874755859375	-518.0472412109375	60.57024383544922	47.97809600830078	-457.0379028320312	10.09518718719482	338.4599609375	-459.2848815917969	166.4918060302734	102.6519622802734	-275.2572326660156	182.0998077392578	92.36468505859375	-345.4402770996094	78.77859497070312	76.17044830322266	-330.3663940429688	86.93252563476562	38.04220199584961	-532.9362182617188	
345	3.44	-74.10459136962891	947.0346069335938	-768.1428833007812	41.97109222412109	951.9694213867188	-848.8353271484375	-6.603704929351807	1050.97021484375	-789.580810546875	158.2464447021484	1233.588989257812	-555.3738403320312	0.1345449686050415	1174.591186523438	-802.3299560546875	35.43983459472656	1437.882446289062	-726.02880859375	142.1771392822266	1348.807739257812	-579.7432250976562	-79.03917694091797	1322.40087890625	-738.5194091796875	105.8725204467773	1393.626953125	-807.4735107421875	224.4695739746094	1417.266479492188	-758.746826171875	317.8379821777344	1316.263916015625	-821.4227294921875	411.0243530273438	1124.854248046875	-837.4483642578125	320.4093017578125	1084.33544921875	-866.3681640625	489.2181701660156	929.2831420898438	-772.572509765625	498.5985107421875	926.2122802734375	-846.249755859375	455.4474182128906	1046.52001953125	-835.7655639648438	550.9262084960938	772.2164916992188	-800.3180541992188	530.2181396484375	854.9990234375	-852.8993530273438	538.1304931640625	853.884521484375	-781.3955078125	-68.76968383789062	1407.99853515625	-588.7178344726562	-146.4045715332031	1349.919067382812	-574.3158569335938	-212.7006072998047	1066.210083007812	-574.1322631835938	-199.3175506591797	1055.30810546875	-639.5194091796875	-137.3829040527344	850.6419067382812	-526.2636108398438	-219.0688171386719	843.890869140625	-558.0791625976562	-222.8019561767578	1007.5732421875	-571.7848510742188	-151.7384948730469	695.1435546875	-538.7946166992188	-145.8858489990234	751.5537719726562	-518.9192504882812	-213.0867156982422	755.6161499023438	-555.0327758789062	-5.943032264709473	1616.619750976562	-595.901123046875	189.5029907226562	1642.089111328125	-534.5731201171875	71.45616912841797	1623.239990234375	-482.0653381347656	146.2522888183594	1648.338500976562	-681.1129150390625	208.3795776367188	848.5853271484375	-815.3717041015625	-114.3105239868164	851.3726196289062	-580.7110595703125	-1.936900019645691	897.3961791992188	-544.240234375	211.0445861816406	881.7890014648438	-686.8319091796875	165.7310638427734	435.3605651855469	-834.720947265625	206.0628204345703	585.4338989257812	-810.756103515625	57.55062484741211	42.87337112426758	-950.1222534179688	150.4245910644531	289.4035034179688	-876.8629150390625	203.5646820068359	40.63579559326172	-753.6495361328125	125.9223403930664	47.38957214355469	-776.0009155273438	191.7206726074219	39.9948844909668	-873.3623657226562	-17.41624641418457	46.78623580932617	-921.5570068359375	-4.506447792053223	475.0272827148438	-487.5061645507812	-81.72970581054688	727.341064453125	-517.0581665039062	67.31720733642578	47.90559387207031	-440.0896301269531	12.72188377380371	338.0604858398438	-454.1422729492188	171.1556854248047	109.1054458618164	-259.1297912597656	187.2491149902344	97.38491058349609	-328.9243469238281	84.13446044921875	79.66469573974609	-314.0465393066406	94.55323028564453	36.33442687988281	-515.5726318359375	
